<svg width="64" height="64" viewBox="0 0 64 64" fill="none" xmlns="http://www.w3.org/2000/svg">
<rect width="64" height="64" rx="2" fill="#100035"/>
<path d="M24.1311 27.723C24.0601 26.9418 23.7441 26.3345 23.183 25.9013C22.629 25.4609 21.8371 25.2408 20.8073 25.2408C20.1254 25.2408 19.5573 25.3295 19.1027 25.5071C18.6482 25.6847 18.3073 25.9297 18.08 26.2422C17.8527 26.5476 17.7355 26.8991 17.7284 27.2969C17.7142 27.6236 17.7781 27.9112 17.9202 28.1598C18.0693 28.4084 18.2824 28.6286 18.5594 28.8203C18.8435 29.005 19.1844 29.1683 19.5821 29.3104C19.9798 29.4524 20.4273 29.5767 20.9244 29.6832L22.7994 30.1094C23.879 30.3438 24.8307 30.6562 25.6546 31.0469C26.4855 31.4375 27.1816 31.9027 27.7426 32.4425C28.3108 32.9822 28.7405 33.6037 29.0317 34.3068C29.3229 35.0099 29.472 35.7983 29.4791 36.6719C29.472 38.0497 29.124 39.2322 28.4351 40.2195C27.7462 41.2067 26.7554 41.9631 25.4628 42.4886C24.1773 43.0142 22.6254 43.277 20.8073 43.277C18.982 43.277 17.3911 43.0036 16.0345 42.4567C14.678 41.9098 13.6233 41.0788 12.8705 39.9638C12.1176 38.8487 11.7306 37.4389 11.7093 35.7344H16.759C16.8016 36.4375 16.9898 37.0234 17.3236 37.4922C17.6574 37.9609 18.1155 38.3161 18.6979 38.5575C19.2874 38.799 19.9692 38.9197 20.7433 38.9197C21.4536 38.9197 22.0573 38.8239 22.5544 38.6321C23.0587 38.4403 23.4458 38.174 23.7156 37.8331C23.9855 37.4922 24.124 37.1016 24.1311 36.6612C24.124 36.2493 23.9962 35.8977 23.7476 35.6065C23.499 35.3082 23.1155 35.0526 22.597 34.8395C22.0857 34.6193 21.4323 34.4169 20.6368 34.2322L18.357 33.6996C16.4678 33.2663 14.9798 32.5668 13.8932 31.6009C12.8066 30.6278 12.2668 29.3139 12.2739 27.6591C12.2668 26.3097 12.629 25.1271 13.3605 24.1115C14.0921 23.0959 15.1041 22.304 16.3968 21.7358C17.6894 21.1676 19.1631 20.8835 20.8179 20.8835C22.5083 20.8835 23.9749 21.1712 25.2178 21.7464C26.4678 22.3146 27.4372 23.1136 28.1262 24.1435C28.8151 25.1733 29.1666 26.3665 29.1808 27.723H24.1311ZM51.9472 29.0866H46.6205C46.5495 28.5398 46.4039 28.0462 46.1837 27.6058C45.9635 27.1655 45.6723 26.7891 45.3101 26.4766C44.9479 26.1641 44.5182 25.9261 44.021 25.7628C43.531 25.5923 42.9877 25.5071 42.3911 25.5071C41.3328 25.5071 40.4202 25.7663 39.6531 26.2848C38.8932 26.8033 38.3073 27.5526 37.8953 28.5327C37.4905 29.5128 37.2881 30.6989 37.2881 32.0909C37.2881 33.5398 37.4941 34.7543 37.906 35.7344C38.325 36.7074 38.911 37.4425 39.6638 37.9396C40.4237 38.4297 41.3222 38.6747 42.3591 38.6747C42.9415 38.6747 43.4706 38.6001 43.9465 38.451C44.4294 38.3018 44.852 38.0852 45.2142 37.8011C45.5835 37.5099 45.8854 37.1584 46.1198 36.7464C46.3612 36.3274 46.5281 35.8551 46.6205 35.3295L51.9472 35.3615C51.8548 36.3274 51.5743 37.2791 51.1056 38.2166C50.6439 39.1541 50.0083 40.0099 49.1986 40.7841C48.3889 41.5511 47.4017 42.1619 46.237 42.6165C45.0793 43.071 43.7512 43.2983 42.2526 43.2983C40.2781 43.2983 38.5097 42.8651 36.9472 41.9986C35.3918 41.125 34.1631 39.8537 33.2611 38.1847C32.3591 36.5156 31.9081 34.4844 31.9081 32.0909C31.9081 29.6903 32.3662 27.6555 33.2824 25.9865C34.1986 24.3175 35.4379 23.0497 37.0004 22.1832C38.5629 21.3168 40.3137 20.8835 42.2526 20.8835C43.5736 20.8835 44.7952 21.0682 45.9173 21.4375C47.0395 21.7997 48.0267 22.3324 48.879 23.0355C49.7313 23.7315 50.4237 24.5874 50.9564 25.603C51.4891 26.6186 51.8193 27.7798 51.9472 29.0866Z" fill="#DF552B"/>
</svg>
